<mxfile host="Electron" modified="2021-09-09T00:51:00.346Z" agent="5.0 (X11; Linux x86_64) AppleWebKit/537.36 (KHTML, like Gecko) draw.io/14.6.13 Chrome/91.0.4472.164 Electron/13.1.9 Safari/537.36" etag="xrLk_W28UIu1yKEenmf2" compressed="false" version="14.6.13" type="device">
  <diagram id="prtHgNgQTEPvFCAcTncT" name="Page-1">
    <mxGraphModel dx="-22" dy="1641" grid="1" gridSize="10" guides="1" tooltips="1" connect="1" arrows="1" fold="1" page="1" pageScale="1" pageWidth="827" pageHeight="1169" math="0" shadow="0">
      <root>
        <mxCell id="0" />
        <mxCell id="1" parent="0" />
        <mxCell id="RElrKg4RWMtQLK25_EnR-11" style="edgeStyle=orthogonalEdgeStyle;rounded=0;orthogonalLoop=1;jettySize=auto;html=1;exitX=1;exitY=0.5;exitDx=0;exitDy=0;entryX=0;entryY=0.5;entryDx=0;entryDy=0;" edge="1" parent="1" source="RElrKg4RWMtQLK25_EnR-1" target="RElrKg4RWMtQLK25_EnR-2">
          <mxGeometry relative="1" as="geometry" />
        </mxCell>
        <mxCell id="RElrKg4RWMtQLK25_EnR-1" value="&lt;font style=&quot;font-size: 9px&quot;&gt;RNA-seq reads&lt;/font&gt;" style="ellipse;whiteSpace=wrap;html=1;rounded=1;fontSize=10;gradientColor=#ffffff;fillColor=#CCFF99;strokeColor=#CCFF99;" vertex="1" parent="1">
          <mxGeometry x="840" y="40" width="80" height="40" as="geometry" />
        </mxCell>
        <mxCell id="RElrKg4RWMtQLK25_EnR-12" style="edgeStyle=orthogonalEdgeStyle;rounded=0;orthogonalLoop=1;jettySize=auto;html=1;exitX=1;exitY=0.5;exitDx=0;exitDy=0;entryX=0;entryY=0.5;entryDx=0;entryDy=0;" edge="1" parent="1" source="RElrKg4RWMtQLK25_EnR-2" target="RElrKg4RWMtQLK25_EnR-6">
          <mxGeometry relative="1" as="geometry" />
        </mxCell>
        <mxCell id="RElrKg4RWMtQLK25_EnR-2" value="Trimmomatic" style="rounded=1;whiteSpace=wrap;html=1;fontSize=10;fillColor=#dae8fc;strokeColor=#6c8ebf;gradientColor=#ffffff;" vertex="1" parent="1">
          <mxGeometry x="960" y="40" width="80" height="40" as="geometry" />
        </mxCell>
        <mxCell id="RElrKg4RWMtQLK25_EnR-3" value="Sequenza adattatrice" style="ellipse;whiteSpace=wrap;html=1;rounded=1;fontSize=10;gradientColor=#ffffff;fillColor=#CCFF99;strokeColor=#CCFF99;" vertex="1" parent="1">
          <mxGeometry x="960" y="-20" width="80" height="40" as="geometry" />
        </mxCell>
        <mxCell id="RElrKg4RWMtQLK25_EnR-4" style="edgeStyle=orthogonalEdgeStyle;rounded=0;orthogonalLoop=1;jettySize=auto;html=1;entryX=0.5;entryY=0;entryDx=0;entryDy=0;fontSize=10;" edge="1" parent="1" source="RElrKg4RWMtQLK25_EnR-3" target="RElrKg4RWMtQLK25_EnR-2">
          <mxGeometry relative="1" as="geometry" />
        </mxCell>
        <mxCell id="RElrKg4RWMtQLK25_EnR-15" style="edgeStyle=orthogonalEdgeStyle;rounded=0;orthogonalLoop=1;jettySize=auto;html=1;exitX=1;exitY=0.5;exitDx=0;exitDy=0;entryX=0;entryY=0.5;entryDx=0;entryDy=0;" edge="1" parent="1" source="RElrKg4RWMtQLK25_EnR-6" target="RElrKg4RWMtQLK25_EnR-14">
          <mxGeometry relative="1" as="geometry" />
        </mxCell>
        <mxCell id="RElrKg4RWMtQLK25_EnR-6" value="STAR" style="rounded=1;whiteSpace=wrap;html=1;fontSize=10;fillColor=#dae8fc;strokeColor=#6c8ebf;gradientColor=#ffffff;" vertex="1" parent="1">
          <mxGeometry x="1080" y="40" width="80" height="40" as="geometry" />
        </mxCell>
        <mxCell id="RElrKg4RWMtQLK25_EnR-8" style="edgeStyle=orthogonalEdgeStyle;rounded=0;orthogonalLoop=1;jettySize=auto;html=1;entryX=0.5;entryY=0;entryDx=0;entryDy=0;fontSize=10;" edge="1" parent="1" source="RElrKg4RWMtQLK25_EnR-9" target="RElrKg4RWMtQLK25_EnR-6">
          <mxGeometry relative="1" as="geometry" />
        </mxCell>
        <mxCell id="RElrKg4RWMtQLK25_EnR-9" value="Genoma di riferimento" style="ellipse;whiteSpace=wrap;html=1;rounded=1;fontSize=10;gradientColor=#ffffff;fillColor=#CCFF99;strokeColor=#CCFF99;" vertex="1" parent="1">
          <mxGeometry x="1080" y="-20" width="80" height="40" as="geometry" />
        </mxCell>
        <mxCell id="RElrKg4RWMtQLK25_EnR-19" style="edgeStyle=orthogonalEdgeStyle;rounded=0;orthogonalLoop=1;jettySize=auto;html=1;exitX=0.5;exitY=1;exitDx=0;exitDy=0;entryX=1;entryY=0.5;entryDx=0;entryDy=0;" edge="1" parent="1" source="RElrKg4RWMtQLK25_EnR-14" target="RElrKg4RWMtQLK25_EnR-18">
          <mxGeometry relative="1" as="geometry" />
        </mxCell>
        <mxCell id="RElrKg4RWMtQLK25_EnR-14" value="File di allineamento" style="ellipse;whiteSpace=wrap;html=1;rounded=1;fontSize=10;fillColor=#ffe6cc;strokeColor=#d79b00;gradientColor=#ffffff;" vertex="1" parent="1">
          <mxGeometry x="1201" y="40" width="80" height="40" as="geometry" />
        </mxCell>
        <mxCell id="RElrKg4RWMtQLK25_EnR-21" style="edgeStyle=orthogonalEdgeStyle;rounded=0;orthogonalLoop=1;jettySize=auto;html=1;exitX=0;exitY=0.5;exitDx=0;exitDy=0;" edge="1" parent="1" source="RElrKg4RWMtQLK25_EnR-17">
          <mxGeometry relative="1" as="geometry">
            <mxPoint x="920" y="140.1428571428571" as="targetPoint" />
          </mxGeometry>
        </mxCell>
        <mxCell id="RElrKg4RWMtQLK25_EnR-17" value="Samtools index" style="rounded=1;whiteSpace=wrap;html=1;fontSize=10;fillColor=#dae8fc;strokeColor=#6c8ebf;gradientColor=#ffffff;" vertex="1" parent="1">
          <mxGeometry x="960" y="120" width="80" height="40" as="geometry" />
        </mxCell>
        <mxCell id="RElrKg4RWMtQLK25_EnR-20" style="edgeStyle=orthogonalEdgeStyle;rounded=0;orthogonalLoop=1;jettySize=auto;html=1;exitX=0;exitY=0.5;exitDx=0;exitDy=0;entryX=1;entryY=0.5;entryDx=0;entryDy=0;" edge="1" parent="1" source="RElrKg4RWMtQLK25_EnR-18" target="RElrKg4RWMtQLK25_EnR-17">
          <mxGeometry relative="1" as="geometry" />
        </mxCell>
        <mxCell id="RElrKg4RWMtQLK25_EnR-18" value="Samtools sort" style="rounded=1;whiteSpace=wrap;html=1;fontSize=10;fillColor=#dae8fc;strokeColor=#6c8ebf;gradientColor=#ffffff;" vertex="1" parent="1">
          <mxGeometry x="1080" y="120" width="80" height="40" as="geometry" />
        </mxCell>
        <mxCell id="RElrKg4RWMtQLK25_EnR-22" value="File di allineamento&lt;br&gt;compressi" style="ellipse;whiteSpace=wrap;html=1;rounded=1;fontSize=10;fillColor=#f8cecc;strokeColor=#b85450;gradientColor=#ffffff;" vertex="1" parent="1">
          <mxGeometry x="840" y="120" width="80" height="40" as="geometry" />
        </mxCell>
      </root>
    </mxGraphModel>
  </diagram>
</mxfile>
